<svg xmlns="http://www.w3.org/2000/svg" width="60" height="68.576" viewBox="0 0 60 68.576"><path d="M6.437,68.576h0a6.546,6.546,0,0,1-4.472-1.8A6.34,6.34,0,0,1,0,62.139V6.411A6.212,6.212,0,0,1,2,1.656,6.633,6.633,0,0,1,6.41,0,6.456,6.456,0,0,1,9.7.88L56.841,28.751a6.422,6.422,0,0,1,0,11.063L9.7,67.671A6.4,6.4,0,0,1,6.437,68.576ZM23.9,26.334l8.272,19.171h4.382l8.3-19.171H40.445L34.529,40.028,28.7,26.334H23.9Zm-17.582,0v3.615h6.135V45.505h4.437V29.949h6.135V26.334Z" transform="translate(0 0)" fill="#0abde3"/></svg>